<?xml version="1.0" encoding="UTF-8" standalone="no"?>
<!-- Created with Inkscape (http://www.inkscape.org/) -->

<svg
   xmlns:dc="http://purl.org/dc/elements/1.1/"
   xmlns:cc="http://creativecommons.org/ns#"
   xmlns:rdf="http://www.w3.org/1999/02/22-rdf-syntax-ns#"
   xmlns:svg="http://www.w3.org/2000/svg"
   xmlns="http://www.w3.org/2000/svg"
   xmlns:sodipodi="http://sodipodi.sourceforge.net/DTD/sodipodi-0.dtd"
   xmlns:inkscape="http://www.inkscape.org/namespaces/inkscape"
   width="100"
   height="100"
   id="svg2"
   version="1.1"
   inkscape:version="0.48.5 r10040"
   sodipodi:docname="FrontEyesOff.svg"
   inkscape:export-filename="C:\Users\Eugenio\Documents\EMOTE\EMOTE-MODULES-WIP\WoZInterfaceScenario2\WoZInterface\Images\IconsNAO\FrontEyesOff.png"
   inkscape:export-xdpi="90"
   inkscape:export-ydpi="90">
  <defs
     id="defs4" />
  <sodipodi:namedview
     id="base"
     pagecolor="#ffffff"
     bordercolor="#666666"
     borderopacity="1.0"
     inkscape:pageopacity="0.0"
     inkscape:pageshadow="2"
     inkscape:zoom="3.959798"
     inkscape:cx="-21.232456"
     inkscape:cy="29.309827"
     inkscape:document-units="px"
     inkscape:current-layer="layer1"
     showgrid="false"
     showguides="true"
     inkscape:guide-bbox="true"
     inkscape:window-width="1440"
     inkscape:window-height="837"
     inkscape:window-x="-8"
     inkscape:window-y="-8"
     inkscape:window-maximized="1">
    <sodipodi:guide
       orientation="0,1"
       position="272.32143,733.39286"
       id="guide3020" />
    <sodipodi:guide
       orientation="0,1"
       position="276.42857,737.5"
       id="guide3022" />
    <sodipodi:guide
       orientation="1,0"
       position="282.94643,729.73214"
       id="guide3792" />
    <sodipodi:guide
       orientation="1,0"
       position="340,733.39286"
       id="guide3794" />
    <sodipodi:guide
       orientation="0,1"
       position="311.51786,715.53572"
       id="guide3862" />
    <sodipodi:guide
       orientation="1,0"
       position="311.51786,725.80357"
       id="guide3898" />
  </sodipodi:namedview>
  <metadata
     id="metadata7">
    <rdf:RDF>
      <cc:Work
         rdf:about="">
        <dc:format>image/svg+xml</dc:format>
        <dc:type
           rdf:resource="http://purl.org/dc/dcmitype/StillImage" />
        <dc:title></dc:title>
      </cc:Work>
    </rdf:RDF>
  </metadata>
  <g
     inkscape:label="Layer 1"
     inkscape:groupmode="layer"
     id="layer1"
     transform="translate(0,-952.36217)">
    <path
       style="opacity:0.58999999;fill:none;stroke:#000000;stroke-width:1.57681727px;stroke-linecap:butt;stroke-linejoin:miter;stroke-opacity:1"
       d="m 4.9621809,979.04106 c 0,0 26.7393221,-15.56632 43.5605991,-16.13236 18.478514,-0.62181 45.10134,16.13236 45.10134,16.13236 l 0.840407,44.43474 -31.935153,15.8493 -25.211931,0 -32.3552621,-16.4153 z"
       id="path2996"
       inkscape:connector-curvature="0"
       sodipodi:nodetypes="cscccccc" />
    <path
       style="opacity:0.58999999;fill:none;stroke:#000000;stroke-width:1.57681727px;stroke-linecap:butt;stroke-linejoin:miter;stroke-opacity:1"
       d="m 19.94927,972.53153 c 0,0 1.602893,19.75203 8.403972,21.50979 24.09141,6.22658 44.260933,-1.13208 44.260933,-1.13208 7.8762,-12.79547 4.776349,-18.38097 5.182466,-20.37771 0,0 -14.566886,-8.77375 -27.593062,-9.05679 -10.097995,-0.21939 -30.254309,9.05679 -30.254309,9.05679 z"
       id="path2998"
       inkscape:connector-curvature="0"
       sodipodi:nodetypes="csccsc" />
    <path
       style="opacity:0.58999999;fill:none;stroke:#000000;stroke-width:0.7103532;stroke-linecap:butt;stroke-linejoin:miter;stroke-miterlimit:4;stroke-opacity:1;stroke-dasharray:none"
       d="m 4.9621809,979.04106 -3.2883342,0.10158 0.081264,43.61886 3.2296008,0.1441 z"
       id="path3000"
       inkscape:connector-curvature="0"
       sodipodi:nodetypes="ccccc" />
    <path
       style="opacity:0.58999999;fill:none;stroke:#000000;stroke-width:0.7103532;stroke-linecap:butt;stroke-linejoin:miter;stroke-miterlimit:4;stroke-opacity:1;stroke-dasharray:none"
       d="m 97.752863,978.93947 -3.288336,0.10158 0.08126,43.61875 3.229601,0.1443 z"
       id="path3000-4"
       inkscape:connector-curvature="0"
       sodipodi:nodetypes="ccccc" />
    <path
       sodipodi:type="arc"
       style="opacity:0.58999999;fill:#000000;stroke-width:0.56699997;stroke-miterlimit:4;stroke-dasharray:none"
       id="path3840"
       sodipodi:cx="298.83929"
       sodipodi:cy="336.91574"
       sodipodi:rx="2.1428571"
       sodipodi:ry="1.9642857"
       d="m 300.98215,336.91574 a 2.1428571,1.9642857 0 1 1 -4.28571,0 2.1428571,1.9642857 0 1 1 4.28571,0 z"
       transform="matrix(1.5687422,0,0,1.5849338,-436.80684,473.4958)" />
    <path
       sodipodi:type="arc"
       style="opacity:0.58999999;fill:#999999;fill-opacity:1;stroke-width:0.56699997;stroke-miterlimit:4;stroke-dasharray:none"
       id="path3866"
       sodipodi:cx="298.75"
       sodipodi:cy="336.82648"
       sodipodi:rx="3.3928571"
       sodipodi:ry="3.1250038"
       d="m 302.14286,336.82648 a 3.3928571,3.1250038 0 1 1 -6.78572,0 3.3928571,3.1250038 0 1 1 6.78572,0 z"
       transform="matrix(1.8164383,0,0,1.7660689,-510.80606,412.48471)" />
    <path
       d="m 300.98215,336.91574 a 2.1428571,1.9642857 0 1 1 -4.28571,0 2.1428571,1.9642857 0 1 1 4.28571,0 z"
       sodipodi:ry="1.9642857"
       sodipodi:rx="2.1428571"
       sodipodi:cy="336.91574"
       sodipodi:cx="298.83929"
       id="path3842"
       style="opacity:0.58999999;fill:#000000;stroke-width:0.56699997;stroke-miterlimit:4;stroke-dasharray:none"
       sodipodi:type="arc"
       transform="matrix(1.5687422,0,0,1.5849338,-436.94691,473.3543)" />
    <path
       transform="matrix(1.7751559,0,0,1.9019202,-462.47582,366.72635)"
       sodipodi:type="arc"
       style="opacity:0.58999999;fill:#999999;fill-opacity:1;stroke-width:0.56699997;stroke-miterlimit:4;stroke-dasharray:none"
       id="path3866-9"
       sodipodi:cx="298.75"
       sodipodi:cy="336.82648"
       sodipodi:rx="3.3928571"
       sodipodi:ry="3.1250038"
       d="m 302.14286,336.82648 a 3.3928571,3.1250038 0 1 1 -6.78572,0 3.3928571,3.1250038 0 1 1 6.78572,0 z" />
    <path
       transform="matrix(1.5687422,0,0,1.5849338,-400.94988,473.3543)"
       d="m 300.98215,336.91574 a 2.1428571,1.9642857 0 1 1 -4.28571,0 2.1428571,1.9642857 0 1 1 4.28571,0 z"
       sodipodi:ry="1.9642857"
       sodipodi:rx="2.1428571"
       sodipodi:cy="336.91574"
       sodipodi:cx="298.83929"
       id="path3842-0"
       style="opacity:0.58999999;fill:#000000;stroke-width:0.56699997;stroke-miterlimit:4;stroke-dasharray:none"
       sodipodi:type="arc" />
    <rect
       style="opacity:0.58999999;fill:#000000;stroke-width:0.56699997;stroke-miterlimit:4;stroke-dasharray:none"
       id="rect3892"
       width="4.2019882"
       height="2.2641914"
       x="47.682617"
       y="1024.042" />
    <path
       style="opacity:0.58999999;fill:#ff6600;fill-opacity:0.50793654;stroke-width:0.56699997;stroke-miterlimit:4;stroke-dasharray:none"
       d="m 43.194485,995.50487 c -4.086683,-0.27403 -8.621369,-0.93598 -12.514579,-1.82684 -2.850843,-0.65235 -3.356999,-0.90691 -4.439587,-2.23294 -2.296827,-2.8133 -4.135723,-8.75931 -5.177917,-16.74264 -0.114362,-0.87567 -0.192234,-1.60596 -0.173158,-1.62285 0.07624,-0.0673 3.786254,-1.6392 5.497282,-2.329 7.59006,-3.05984 13.924736,-5.03574 19.329147,-6.02911 1.93404,-0.35549 6.51025,-0.36114 8.684102,-0.0111 6.361297,1.02542 13.328552,3.48434 20.44396,7.21521 2.363091,1.23906 2.217008,0.90858 2.233669,5.05298 0.01098,2.82384 -4.24e-4,2.94928 -0.442826,4.71607 -0.719315,2.87284 -2.245921,6.47091 -4.062947,9.576 l -0.53789,0.91919 -1.533541,0.45886 c -3.332589,0.99716 -8.713876,2.04242 -12.878887,2.50155 -4.437062,0.48915 -10.276516,0.63254 -14.426828,0.35425 z"
       id="path3894"
       inkscape:connector-curvature="0" />
    <path
       style="opacity:0.58999999;fill:#ffffff;fill-opacity:0.50793654;stroke-width:0.56699997;stroke-miterlimit:4;stroke-dasharray:none"
       d="m 21.57709,1030.3634 -15.7924646,-8.0263 0,-21.3838 0,-21.38391 2.4861737,-1.35208 c 2.7089659,-1.47322 6.2614789,-3.27865 8.9790259,-4.56326 1.274697,-0.60256 1.758842,-0.7719 1.837828,-0.64277 0.05898,0.0963 0.149972,0.65201 0.202258,1.23466 0.144638,1.61331 0.732556,5.09172 1.286965,7.61517 1.487655,6.77112 3.874072,11.36678 6.543695,12.60159 1.462617,0.67652 7.549636,1.89721 11.929799,2.39241 6.120338,0.69192 13.322998,0.66791 19.539234,-0.0652 2.382386,-0.28094 6.376576,-0.98463 8.801035,-1.55055 2.408365,-0.56218 5.227866,-1.34766 5.644713,-1.57254 0.617314,-0.33305 3.479971,-5.99346 4.434442,-8.76837 1.263557,-3.67344 1.588806,-6.26572 1.288328,-10.26824 -0.101659,-1.35493 -0.155149,-2.49359 -0.118754,-2.53037 0.212503,-0.2147 12.433099,6.22105 13.887308,7.31347 0.236346,0.17757 0.275549,1.46339 0.665508,21.82541 0.227907,11.9003 0.395024,21.6564 0.371368,21.6802 -0.02369,0.024 -7.03308,3.516 -15.576513,7.7599 l -15.533514,7.7162 -12.541983,0 -12.541986,0 -15.792482,-8.0261 z m 30.429396,-5.1997 0,-1.2027 -2.171013,0 -2.17103,0 0,1.2027 0,1.2028 2.17103,0 2.171013,0 0,-1.2028 z m 17.508293,-12.0744 c 1.686994,-0.4478 3.111413,-1.6767 3.860864,-3.3305 1.611945,-3.5574 -0.650339,-7.6729 -4.568084,-8.3104 -3.672786,-0.5975 -6.996432,2.2005 -6.996432,5.8901 0,4.0016 3.749763,6.8007 7.703652,5.7508 z m -36.097825,-0.3746 c 1.209186,-0.2588 2.213698,-0.8105 3.065887,-1.684 2.603296,-2.6679 1.846315,-6.7656 -1.568679,-8.4917 -4.164855,-2.1051 -9.240128,0.5283 -9.240128,4.7942 0,2.0912 1.23118,3.9289 3.281574,4.8982 1.473487,0.6967 2.79567,0.8399 4.461346,0.4833 l 0,0 z"
       id="path3900"
       inkscape:connector-curvature="0" />
    <path
       style="opacity:0.58999999;fill:#ffffff;fill-opacity:0.50793654;stroke-width:0.56699997;stroke-miterlimit:4;stroke-dasharray:none"
       d="m 2.1429001,1000.9652 0,-21.43905 0.9804639,0 0.9804639,0 0,21.43905 0,21.439 -0.9804639,0 -0.9804639,0 0,-21.439 z"
       id="path3902"
       inkscape:connector-curvature="0" />
    <path
       style="opacity:0.58999999;fill:#ffffff;fill-opacity:0.50793654;stroke-width:0.56699997;stroke-miterlimit:4;stroke-dasharray:none"
       d="m 2.1429001,1000.9652 0,-21.43905 0.9804639,0 0.9804639,0 0,21.43905 0,21.439 -0.9804639,0 -0.9804639,0 0,-21.439 z"
       id="path3904"
       inkscape:connector-curvature="0" />
    <path
       style="opacity:0.58999999;fill:#ffffff;fill-opacity:0.50793654;stroke-width:0.56699997;stroke-miterlimit:4;stroke-dasharray:none"
       d="m 96.092348,1022.2995 -0.805377,-0.051 -0.0031,-0.8065 c -0.0015,-0.4436 -0.09491,-5.2323 -0.206902,-10.6417 -0.112008,-5.4092 -0.205145,-14.69068 -0.206902,-20.62534 l -0.0031,-10.79028 1.260595,0 1.26061,0 0,21.50982 c 0,20.4014 -0.01255,21.5084 -0.245116,21.483 -0.134755,-0.015 -0.607543,-0.049 -1.050509,-0.077 z"
       id="path3906"
       inkscape:connector-curvature="0" />
  </g>
</svg>
