<?xml version="1.0" encoding="UTF-8" standalone="no"?>
<!-- Created with Inkscape (http://www.inkscape.org/) -->

<svg
   xmlns:dc="http://purl.org/dc/elements/1.1/"
   xmlns:cc="http://creativecommons.org/ns#"
   xmlns:rdf="http://www.w3.org/1999/02/22-rdf-syntax-ns#"
   xmlns:svg="http://www.w3.org/2000/svg"
   xmlns="http://www.w3.org/2000/svg"
   xmlns:sodipodi="http://sodipodi.sourceforge.net/DTD/sodipodi-0.dtd"
   xmlns:inkscape="http://www.inkscape.org/namespaces/inkscape"
   width="744.09448819"
   height="1052.3622047"
   id="svg2"
   version="1.1"
   inkscape:version="0.48.5 r10040"
   sodipodi:docname="Front.svg"
   inkscape:export-filename="C:\Users\Eugenio\Documents\EMOTE\EMOTE-MODULES-WIP\WoZInterfaceScenario2\WoZInterface\Assets\Icons\Front.png"
   inkscape:export-xdpi="90"
   inkscape:export-ydpi="90">
  <defs
     id="defs4" />
  <sodipodi:namedview
     id="base"
     pagecolor="#ffffff"
     bordercolor="#666666"
     borderopacity="1.0"
     inkscape:pageopacity="0.0"
     inkscape:pageshadow="2"
     inkscape:zoom="11.2"
     inkscape:cx="301.50524"
     inkscape:cy="714.9618"
     inkscape:document-units="px"
     inkscape:current-layer="layer1"
     showgrid="false"
     showguides="true"
     inkscape:guide-bbox="true"
     inkscape:window-width="1440"
     inkscape:window-height="837"
     inkscape:window-x="-8"
     inkscape:window-y="-8"
     inkscape:window-maximized="1">
    <sodipodi:guide
       orientation="0,1"
       position="272.32143,733.39286"
       id="guide3020" />
    <sodipodi:guide
       orientation="0,1"
       position="276.42857,737.5"
       id="guide3022" />
    <sodipodi:guide
       orientation="1,0"
       position="282.94643,729.73214"
       id="guide3792" />
    <sodipodi:guide
       orientation="1,0"
       position="340,733.39286"
       id="guide3794" />
    <sodipodi:guide
       orientation="0,1"
       position="311.51786,715.53572"
       id="guide3862" />
    <sodipodi:guide
       orientation="1,0"
       position="311.51786,725.80357"
       id="guide3898" />
  </sodipodi:namedview>
  <metadata
     id="metadata7">
    <rdf:RDF>
      <cc:Work
         rdf:about="">
        <dc:format>image/svg+xml</dc:format>
        <dc:type
           rdf:resource="http://purl.org/dc/dcmitype/StillImage" />
        <dc:title></dc:title>
      </cc:Work>
    </rdf:RDF>
  </metadata>
  <g
     inkscape:label="Layer 1"
     inkscape:groupmode="layer"
     id="layer1">
    <path
       style="fill:none;stroke:#000000;stroke-width:1px;stroke-linecap:butt;stroke-linejoin:miter;stroke-opacity:1"
       d="m 282.94643,318.96932 c 0,0 17.04507,-9.82143 27.76785,-10.17857 11.77919,-0.39233 28.75,10.17857 28.75,10.17857 L 340,347.00504 l -20.35717,9.99999 -16.07143,0 -20.62497,-10.35714 z"
       id="path2996"
       inkscape:connector-curvature="0"
       sodipodi:nodetypes="cscccccc" />
    <path
       style="fill:none;stroke:#000000;stroke-width:1px;stroke-linecap:butt;stroke-linejoin:miter;stroke-opacity:1"
       d="m 292.5,314.86218 c 0,0 1.02177,12.46237 5.35714,13.57142 15.35715,3.92858 28.21428,-0.71428 28.21428,-0.71428 5.02071,-8.07319 3.0447,-11.59731 3.30358,-12.85714 0,0 -9.28571,-5.53572 -17.58929,-5.71429 -6.437,-0.13843 -19.28571,5.71429 -19.28571,5.71429 z"
       id="path2998"
       inkscape:connector-curvature="0"
       sodipodi:nodetypes="csccsc" />
    <path
       style="fill:none;stroke:#000000;stroke-width:0.45049813;stroke-linecap:butt;stroke-linejoin:miter;stroke-miterlimit:4;stroke-opacity:1;stroke-dasharray:none"
       d="m 282.94643,318.96932 -2.09616,0.0641 0.0518,27.52088 2.05872,0.0908 z"
       id="path3000"
       inkscape:connector-curvature="0"
       sodipodi:nodetypes="ccccc" />
    <path
       style="fill:none;stroke:#000000;stroke-width:0.45049813;stroke-linecap:butt;stroke-linejoin:miter;stroke-miterlimit:4;stroke-opacity:1;stroke-dasharray:none"
       d="m 342.09616,318.90522 -2.09616,0.0641 0.0518,27.52088 2.05872,0.0908 z"
       id="path3000-4"
       inkscape:connector-curvature="0"
       sodipodi:nodetypes="ccccc" />
    <path
       sodipodi:type="arc"
       style="fill:#000000;stroke-width:0.56699997;stroke-miterlimit:4;stroke-dasharray:none"
       id="path3840"
       sodipodi:cx="298.83929"
       sodipodi:cy="336.91574"
       sodipodi:rx="2.1428571"
       sodipodi:ry="1.9642857"
       d="m 300.98215,336.91574 a 2.1428571,1.9642857 0 1 1 -4.28571,0 2.1428571,1.9642857 0 1 1 4.28571,0 z"
       transform="translate(1.3392856,0)" />
    <path
       sodipodi:type="arc"
       style="opacity:0.29999999999999999;fill:#999999;stroke-width:0.56699997000000002;stroke-miterlimit:4;stroke-dasharray:none;fill-opacity:1"
       id="path3866"
       sodipodi:cx="298.75"
       sodipodi:cy="336.82648"
       sodipodi:rx="3.3928571"
       sodipodi:ry="3.1250038"
       d="m 302.14286,336.82648 a 3.3928571,3.1250038 0 1 1 -6.78572,0 3.3928571,3.1250038 0 1 1 6.78572,0 z"
       transform="matrix(1.1578947,0,0,1.1142856,-45.831764,-38.494408)" />
    <path
       d="m 300.98215,336.91574 a 2.1428571,1.9642857 0 1 1 -4.28571,0 2.1428571,1.9642857 0 1 1 4.28571,0 z"
       sodipodi:ry="1.9642857"
       sodipodi:rx="2.1428571"
       sodipodi:cy="336.91574"
       sodipodi:cx="298.83929"
       id="path3842"
       style="fill:#000000;stroke-width:0.56699997;stroke-miterlimit:4;stroke-dasharray:none"
       sodipodi:type="arc"
       transform="translate(1.2499999,-0.08927835)" />
    <path
       transform="matrix(1.131579,0,0,1.1999998,-15.023492,-67.365242)"
       sodipodi:type="arc"
       style="opacity:0.29999999999999999;fill:#999999;stroke-width:0.56699997000000002;stroke-miterlimit:4;stroke-dasharray:none;fill-opacity:1"
       id="path3866-9"
       sodipodi:cx="298.75"
       sodipodi:cy="336.82648"
       sodipodi:rx="3.3928571"
       sodipodi:ry="3.1250038"
       d="m 302.14286,336.82648 a 3.3928571,3.1250038 0 1 1 -6.78572,0 3.3928571,3.1250038 0 1 1 6.78572,0 z" />
    <path
       transform="translate(24.196425,-0.08927835)"
       d="m 300.98215,336.91574 a 2.1428571,1.9642857 0 1 1 -4.28571,0 2.1428571,1.9642857 0 1 1 4.28571,0 z"
       sodipodi:ry="1.9642857"
       sodipodi:rx="2.1428571"
       sodipodi:cy="336.91574"
       sodipodi:cx="298.83929"
       id="path3842-0"
       style="fill:#000000;stroke-width:0.56699997;stroke-miterlimit:4;stroke-dasharray:none"
       sodipodi:type="arc" />
    <rect
       style="opacity:0.9;fill:#000000;stroke-width:0.56699997;stroke-miterlimit:4;stroke-dasharray:none"
       id="rect3892"
       width="2.6785715"
       height="1.4285715"
       x="310.17871"
       y="347.36218" />
    <path
       style="opacity:0.9;fill:#ff6600;stroke-width:0.56699997;stroke-miterlimit:4;stroke-dasharray:none"
       d="m 307.31774,329.35701 c -2.60507,-0.17289 -5.49572,-0.59055 -7.97746,-1.15263 -1.81728,-0.41159 -2.13993,-0.57221 -2.83003,-1.40885 -1.46412,-1.77503 -2.63633,-5.52661 -3.30068,-10.56362 -0.0729,-0.5525 -0.12254,-1.01327 -0.11038,-1.02392 0.0486,-0.0425 2.41356,-1.03425 3.50426,-1.46947 4.83831,-1.93057 8.87637,-3.17725 12.32143,-3.80401 1.23286,-0.22429 4.14998,-0.22786 5.53571,-0.007 4.05503,0.64697 8.49633,2.19841 13.03207,4.55236 1.50636,0.78178 1.41324,0.57327 1.42386,3.18814 0.007,1.78168 -2.7e-4,1.86082 -0.28228,2.97556 -0.45853,1.81259 -1.43167,4.08277 -2.58994,6.0419 l -0.34288,0.57995 -0.97756,0.28951 c -2.12437,0.62915 -5.55469,1.28865 -8.20969,1.57834 -2.82842,0.30862 -6.5508,0.39909 -9.19643,0.22351 z"
       id="path3894"
       inkscape:connector-curvature="0" />
  </g>
</svg>
