<?xml version="1.0" encoding="UTF-8" standalone="no"?>
<!-- Created with Inkscape (http://www.inkscape.org/) -->

<svg
   xmlns:dc="http://purl.org/dc/elements/1.1/"
   xmlns:cc="http://creativecommons.org/ns#"
   xmlns:rdf="http://www.w3.org/1999/02/22-rdf-syntax-ns#"
   xmlns:svg="http://www.w3.org/2000/svg"
   xmlns="http://www.w3.org/2000/svg"
   xmlns:sodipodi="http://sodipodi.sourceforge.net/DTD/sodipodi-0.dtd"
   xmlns:inkscape="http://www.inkscape.org/namespaces/inkscape"
   width="100"
   height="100"
   id="svg2"
   version="1.1"
   inkscape:version="0.48.5 r10040"
   sodipodi:docname="FrontEyesOn.svg"
   inkscape:export-filename="C:\Users\Eugenio\Documents\EMOTE\EMOTE-MODULES-WIP\WoZInterfaceScenario2\WoZInterface\Images\IconsNAO\FrontEyesOn.png"
   inkscape:export-xdpi="90"
   inkscape:export-ydpi="90">
  <defs
     id="defs4" />
  <sodipodi:namedview
     id="base"
     pagecolor="#ffffff"
     bordercolor="#666666"
     borderopacity="1.0"
     inkscape:pageopacity="0.0"
     inkscape:pageshadow="2"
     inkscape:zoom="5.6"
     inkscape:cx="59.387155"
     inkscape:cy="52.309565"
     inkscape:document-units="px"
     inkscape:current-layer="layer1"
     showgrid="false"
     showguides="true"
     inkscape:guide-bbox="true"
     inkscape:window-width="1440"
     inkscape:window-height="837"
     inkscape:window-x="-8"
     inkscape:window-y="-8"
     inkscape:window-maximized="1">
    <sodipodi:guide
       orientation="0,1"
       position="272.32143,733.39286"
       id="guide3020" />
    <sodipodi:guide
       orientation="0,1"
       position="276.42857,737.5"
       id="guide3022" />
    <sodipodi:guide
       orientation="1,0"
       position="282.94643,729.73214"
       id="guide3792" />
    <sodipodi:guide
       orientation="1,0"
       position="340,733.39286"
       id="guide3794" />
    <sodipodi:guide
       orientation="0,1"
       position="311.51786,715.53572"
       id="guide3862" />
    <sodipodi:guide
       orientation="1,0"
       position="311.51786,725.80357"
       id="guide3898" />
  </sodipodi:namedview>
  <metadata
     id="metadata7">
    <rdf:RDF>
      <cc:Work
         rdf:about="">
        <dc:format>image/svg+xml</dc:format>
        <dc:type
           rdf:resource="http://purl.org/dc/dcmitype/StillImage" />
        <dc:title></dc:title>
      </cc:Work>
    </rdf:RDF>
  </metadata>
  <g
     inkscape:label="Layer 1"
     inkscape:groupmode="layer"
     id="layer1"
     transform="translate(0,-952.36218)">
    <path
       style="fill:none;stroke:#000000;stroke-width:1.56941044px;stroke-linecap:butt;stroke-linejoin:miter;stroke-opacity:1"
       d="m 5.3112789,979.30517 c 0,0 26.8115821,-15.37885 43.6783171,-15.93807 18.52845,-0.61433 45.223223,15.93807 45.223223,15.93807 l 0.842676,43.89963 -32.021453,15.6584 -25.280065,0 -32.4426981,-16.2175 z"
       id="path2996"
       inkscape:connector-curvature="0"
       sodipodi:nodetypes="cscccccc" />
    <path
       style="fill:none;stroke:#000000;stroke-width:1.56941044px;stroke-linecap:butt;stroke-linejoin:miter;stroke-opacity:1"
       d="m 20.338869,972.87403 c 0,0 1.607225,19.51416 8.426683,21.25078 24.156515,6.15149 44.380543,-1.11846 44.380543,-1.11846 7.897484,-12.6414 4.789258,-18.15962 5.196472,-20.13232 0,0 -14.606253,-8.6681 -27.667631,-8.94771 -10.125282,-0.21676 -30.336067,8.94771 -30.336067,8.94771 z"
       id="path2998"
       inkscape:connector-curvature="0"
       sodipodi:nodetypes="csccsc" />
    <path
       style="fill:none;stroke:#000000;stroke-width:0.70701653;stroke-linecap:butt;stroke-linejoin:miter;stroke-miterlimit:4;stroke-opacity:1;stroke-dasharray:none"
       d="m 5.3112789,979.30517 -3.2972212,0.10036 0.08148,43.09357 3.2383288,0.1425 z"
       id="path3000"
       inkscape:connector-curvature="0"
       sodipodi:nodetypes="ccccc" />
    <path
       style="fill:none;stroke:#000000;stroke-width:0.70701653;stroke-linecap:butt;stroke-linejoin:miter;stroke-miterlimit:4;stroke-opacity:1;stroke-dasharray:none"
       d="m 98.352717,979.20481 -3.297222,0.10035 0.08148,43.09354 3.238328,0.1425 z"
       id="path3000-4"
       inkscape:connector-curvature="0"
       sodipodi:nodetypes="ccccc" />
    <path
       sodipodi:type="arc"
       style="fill:#000000;stroke-width:0.56699997;stroke-miterlimit:4;stroke-dasharray:none"
       id="path3840"
       sodipodi:cx="298.83929"
       sodipodi:cy="336.91574"
       sodipodi:rx="2.1428571"
       sodipodi:ry="1.9642857"
       d="m 300.98215,336.91574 a 2.1428571,1.9642857 0 1 1 -4.28571,0 2.1428571,1.9642857 0 1 1 4.28571,0 z"
       transform="matrix(1.5729816,0,0,1.5658475,-437.65159,479.84787)" />
    <path
       sodipodi:type="arc"
       style="fill:#69d8ff;fill-opacity:1;stroke-width:0.56699997;stroke-miterlimit:4;stroke-dasharray:none"
       id="path3866"
       sodipodi:cx="298.75"
       sodipodi:cy="336.82648"
       sodipodi:rx="3.3928571"
       sodipodi:ry="3.1250038"
       d="m 302.14286,336.82648 a 3.3928571,3.1250038 0 1 1 -6.78572,0 3.3928571,3.1250038 0 1 1 6.78572,0 z"
       transform="matrix(1.8213471,0,0,1.7448013,-511.85077,419.5715)" />
    <path
       d="m 300.98215,336.91574 a 2.1428571,1.9642857 0 1 1 -4.28571,0 2.1428571,1.9642857 0 1 1 4.28571,0 z"
       sodipodi:ry="1.9642857"
       sodipodi:rx="2.1428571"
       sodipodi:cy="336.91574"
       sodipodi:cx="298.83929"
       id="path3842"
       style="fill:#000000;stroke-width:0.56699997;stroke-miterlimit:4;stroke-dasharray:none"
       sodipodi:type="arc"
       transform="matrix(1.5729816,0,0,1.5658475,-437.79202,479.70807)" />
    <path
       transform="matrix(1.7799529,0,0,1.8790167,-463.38993,374.36418)"
       sodipodi:type="arc"
       style="fill:#69d8ff;fill-opacity:1;stroke-width:0.56699997;stroke-miterlimit:4;stroke-dasharray:none"
       id="path3866-9"
       sodipodi:cx="298.75"
       sodipodi:cy="336.82648"
       sodipodi:rx="3.3928571"
       sodipodi:ry="3.1250038"
       d="m 302.14286,336.82648 a 3.3928571,3.1250038 0 1 1 -6.78572,0 3.3928571,3.1250038 0 1 1 6.78572,0 z" />
    <path
       transform="matrix(1.5729816,0,0,1.5658475,-401.69773,479.70807)"
       d="m 300.98215,336.91574 a 2.1428571,1.9642857 0 1 1 -4.28571,0 2.1428571,1.9642857 0 1 1 4.28571,0 z"
       sodipodi:ry="1.9642857"
       sodipodi:rx="2.1428571"
       sodipodi:cy="336.91574"
       sodipodi:cx="298.83929"
       id="path3842-0"
       style="fill:#000000;stroke-width:0.56699997;stroke-miterlimit:4;stroke-dasharray:none"
       sodipodi:type="arc" />
    <rect
       style="fill:#000000;stroke-width:0.56699997;stroke-miterlimit:4;stroke-dasharray:none"
       id="rect3892"
       width="4.2133436"
       height="2.2369251"
       x="48.14716"
       y="1023.7641" />
    <path
       style="fill:#ff6600;fill-opacity:1;stroke-width:0.56699997;stroke-miterlimit:4;stroke-dasharray:none"
       d="m 43.646902,995.57074 c -4.097728,-0.27073 -8.644667,-0.92478 -12.548398,-1.80487 -2.858548,-0.64449 -3.36607,-0.89599 -4.451586,-2.20603 -2.303033,-2.77944 -4.146898,-8.65384 -5.191909,-16.54102 -0.114672,-0.86515 -0.192752,-1.58663 -0.173625,-1.6033 0.07644,-0.0666 3.796485,-1.61949 5.512136,-2.30097 7.610573,-3.02298 13.962367,-4.97509 19.381383,-5.95651 1.939267,-0.3512 6.527842,-0.3568 8.707571,-0.0105 6.378486,1.01306 13.36457,3.44237 20.499206,7.12829 2.369476,1.22416 2.223001,0.89766 2.239705,4.99215 0.01104,2.78984 -4.23e-4,2.91376 -0.44402,4.65928 -0.72126,2.83824 -2.251991,6.39299 -4.073929,9.46069 l -0.539344,0.90811 -1.537683,0.45333 c -3.341595,0.98515 -8.737426,2.01775 -12.913693,2.47137 -4.449052,0.48339 -10.304288,0.62493 -14.465814,0.34998 z"
       id="path3894"
       inkscape:connector-curvature="0" />
    <path
       style="fill:#ffffff;fill-opacity:0.50793654;stroke-width:0.56699997;stroke-miterlimit:4;stroke-dasharray:none"
       d="m 21.97109,1030.0096 -15.835144,-7.9297 0,-21.1264 0,-21.12635 2.4928927,-1.3358 c 2.7162873,-1.45549 6.2783993,-3.23918 9.0032903,-4.50832 1.278142,-0.5953 1.763596,-0.76259 1.842796,-0.63502 0.05915,0.0952 0.150377,0.64415 0.202804,1.21979 0.14503,1.59387 0.734536,5.03039 1.290442,7.52346 1.491676,6.68958 3.884542,11.22989 6.56138,12.44979 1.466568,0.66846 7.570036,1.87448 11.962036,2.36364 6.136877,0.68365 13.359003,0.65986 19.592037,-0.0641 2.388825,-0.27762 6.393808,-0.97285 8.824819,-1.53185 2.414875,-0.55542 5.241994,-1.33146 5.659966,-1.55362 0.618984,-0.32904 3.489377,-5.92129 4.446427,-8.66277 1.266973,-3.62922 1.593099,-6.19028 1.29181,-10.1446 -0.101928,-1.33861 -0.155568,-2.46356 -0.119074,-2.49991 0.213077,-0.2121 12.466697,6.14615 13.924834,7.22542 0.236987,0.17541 0.276295,1.44576 0.667307,21.56266 0.228523,11.7569 0.396093,21.3955 0.372372,21.4191 -0.02375,0.023 -7.052086,3.4735 -15.618606,7.6665 l -15.575491,7.6232 -12.575878,0 -12.575878,0 -15.835158,-7.9296 z m 30.511626,-5.1372 0,-1.1882 -2.17688,0 -2.176897,0 0,1.1882 0,1.1884 2.176897,0 2.17688,0 0,-1.1884 z m 17.555609,-11.9289 c 1.691552,-0.4425 3.119819,-1.6564 3.871296,-3.2907 1.616302,-3.5144 -0.652095,-7.5803 -4.580428,-8.2101 -3.682712,-0.5904 -7.015341,2.174 -7.015341,5.8193 0,3.9533 3.759898,6.7186 7.724473,5.6815 z m -36.195378,-0.3702 c 1.212455,-0.2557 2.219683,-0.8008 3.074173,-1.6637 2.610332,-2.6357 1.851304,-6.6841 -1.572919,-8.3895 -4.176109,-2.0797 -9.265097,0.5219 -9.265097,4.7366 0,2.066 1.234507,3.8814 3.29044,4.8393 1.477471,0.688 2.803227,0.8296 4.473403,0.4773 l 0,0 z"
       id="path3900"
       inkscape:connector-curvature="0" />
    <path
       style="fill:#ffffff;fill-opacity:0.50793654;stroke-width:0.56699997;stroke-miterlimit:4;stroke-dasharray:none"
       d="m 2.4843792,1000.9652 0,-21.18078 0.9831135,0 0.9831136,0 0,21.18078 0,21.1809 -0.9831136,0 -0.9831135,0 0,-21.1809 z"
       id="path3902"
       inkscape:connector-curvature="0" />
    <path
       style="fill:#ffffff;fill-opacity:0.50793654;stroke-width:0.56699997;stroke-miterlimit:4;stroke-dasharray:none"
       d="m 2.4843792,1000.9652 0,-21.18078 0.9831135,0 0.9831136,0 0,21.18078 0,21.1809 -0.9831136,0 -0.9831135,0 0,-21.1809 z"
       id="path3904"
       inkscape:connector-curvature="0" />
    <path
       style="fill:#ffffff;fill-opacity:0.50793654;stroke-width:0.56699997;stroke-miterlimit:4;stroke-dasharray:none"
       d="m 96.687716,1022.0428 -0.807553,-0.05 -0.0031,-0.7968 c -0.0015,-0.4384 -0.09516,-5.1696 -0.20746,-10.5136 -0.112314,-5.3441 -0.205699,-14.51383 -0.207461,-20.37698 l -0.0031,-10.66035 1.264002,0 1.264016,0 0,21.25073 c 0,20.1558 -0.01258,21.2496 -0.245778,21.2244 -0.135119,-0.016 -0.609184,-0.049 -1.053347,-0.077 z"
       id="path3906"
       inkscape:connector-curvature="0" />
  </g>
</svg>
